{"title":"DJ Cinema - Masterpiece Theater(DVD)(2009.avi)-desspratt-","uid":10121862,"size":733080066,"categoryP":"video","categoryS":"music_videos","magnet":"?xt=urn:btih:19c971b3ba2002979d0466b6921c454be926c9ff&amp;dn=DJ+Cinema+-+Masterpiece+Theater%28DVD%29%282009.avi%29-desspratt-&amp;tr=udp%3A%2F%2Ftracker.openbittorrent.com%3A80&amp;tr=udp%3A%2F%2Fopen.demonii.com%3A1337&amp;tr=udp%3A%2F%2Ftracker.coppersurfer.tk%3A6969&amp;tr=udp%3A%2F%2Fexodus.desync.com%3A6969","seeders":1,"leechers":1,"uploader":null,"files":-1,"time":1399683408,"description":" &lt;a href=&quot;http://imagizer.imageshack.us/v2/1024x768q90/836/ed93.jpg&quot; rel=&quot;nofollow&quot; target=&quot;_NEW&quot;&gt;http://imagizer.imageshack.us/v2/1024x768q90/836/ed93.jpg&lt;/a&gt; &lt;a href=&quot;\nhttp://imagizer.imageshack.us/v2/1024x768q90/838/l4ew.jpg&quot; rel=&quot;nofollow&quot; target=&quot;_NEW&quot;&gt;\nhttp://imagizer.imageshack.us/v2/1024x768q90/838/l4ew.jpg&lt;/a&gt; &lt;a href=&quot;\nhttp://imagizer.imageshack.us/v2/1024x768q90/843/ho8tg.jpg&quot; rel=&quot;nofollow&quot; target=&quot;_NEW&quot;&gt;\nhttp://imagizer.imageshack.us/v2/1024x768q90/843/ho8tg.jpg&lt;/a&gt;\n\n\n\n\n\n\n\n[URL=https://imageshack.com/i/nhu78tj][IMG]http://imagizer.imageshack.us/v2/1024x768q90/845/u78t.jpg[/IMG][/URL] \n\n\n\n\n\n\n 01. Intro\n\n 02. Cinema's Policy\n\n 03. Victory - 50 Cent, Fabolous &amp; Jim Jones\n\n 04. Strung Out - Jay-Z, Nas, Kelis &amp; The Notorious B.I.G.\n\n 05. Intermission - Bob Marley Speaks On Marijuana\n\n 06. Higher - Lil' Wayne, Lauryn Hill &amp; Method Man\n\n 07. The Rapper Eater - Lil' Wayne\n\n 08. Streets 'R Us - Tony Gambino\n\n 09. Intermission - Is This Your Ride?\n\n 10. Electric Relaxation '09 - Juelz Santana &amp; Fabolous\n\n 11. Aftermathematics - Eminem, 50 Cent &amp; Dr. Dre\n\n 12. History - Jadakiss, Jay-Z &amp; Michael Jackson\n\n 13. Intermission - Slap Check\n\n 14. Insane In The Brain - T.I., Young Jeezy, Lil' Wayne, &amp; Ludacris\n\n 15. Deep Cover (The Movie) - G-Unit\n\n 16. Casanovas - The Notorious B.I.G., Jay-Z, Marvin Gaye &amp; Tammi Terrell\n 17. Intermission - Retro Kidz\n\n 18. Bring The 80's Back - Slick Rick, Rakim &amp; Big Daddy Kane\n\n 19. Love Lockdown (Rebound Remix) - Kanye West &amp; Lil' Wayne\n\n 20. Intermission - VMB 25th Anniversary\n\n 21. Video Music Box - Nas, AZ, Lupe Fiasco, Jadakiss, Papoose, Dr. Dre, Joe Budden, LL Cool J, Fat Joe &amp; Ralph McDaniels\n\n 22. Golden Guns - Big L, Nas, Big Pun &amp; Fat Joe\n\n 23. The Mack (The Movie) - Twista, Young Buck &amp; Nelly\n\n 24. Mad @ The South - Lil' Wayne, Trick Daddy, Pimp C, Chamillionaire,Rick Ross &amp; T.I.\n\n 25. Intermission - The Stack Bundles Story\n\n 26. Sunglasses (R.I.P. Tribute) - Stack Bundles, Lupe Fiasco &amp; Jim Jones\n\n 27. Intermission - Relationships\n\n 28. Commitment - Andre 3000 &amp; Jean Grae\n\n 29. You Are Everything - 2pac Ft. The Stylistics\n\n 30. Intermission - Awards Speech\n\n 31. Champions - Jay-Z, Rick Ross &amp; Lil' Wayne\n\n 32. Top Back (Cinemix) - Young Jeezy, Young Dro, Big Kuntry, BG &amp; T.I.\n\n 33. Intermission - The Powder Room\n\n 34. Video Vixens 101 - The Game &amp; Kanye West\n\n 35. Intermission - I'm Pregnant\n\n 36. Lil' Ghetto Girl - Ludacris, 2pac, Saigon &amp; Leona\n\n 37. Outro \n\n\n\n\n\n\n\n\n\n\n\n\n\n[URL=https://imageshack.com/i/n8ed93j][IMG]http://imagizer.imageshack.us/v2/1024x768q90/836/ed93.jpg[/IMG][/URL]\n[URL=https://imageshack.com/i/nal4ewj][IMG]http://imagizer.imageshack.us/v2/1024x768q90/838/l4ew.jpg[/IMG][/URL]\n[URL=https://imageshack.com/i/nfho8tgj][IMG]http://imagizer.imageshack.us/v2/1024x768q90/843/ho8tg.jpg[/IMG][/URL]\n______________________________________________________________________________________________________________________________________________________________________________________________________\n\nDJ Cinema Presents Masterpiece Theater Blend   2009DJ_CINEMA.Masterpiece_Theater.avi\nFormat                                   : AVI\nFormat/Info                              : Audio Video Interleave\nFile size                                : 699 MiB\nDuration                                 : 1h 45mn\nOverall bit rate mode                    : Variable\nOverall bit rate                         : 925 Kbps\nWriting application                      : VirtualDubMod 1.5.4.1 (build 2178/release)\nWriting library                          : VirtualDubMod build 2178/release\n\nVideo\nID                                       : 0\nFormat                                   : MPEG-4 Visual\nFormat profile                           : Advanced Simple@L5\nFormat settings, BVOP                    : 1\nFormat settings, QPel                    : No\nFormat settings, GMC                     : No warppoints\nFormat settings, Matrix                  : Custom\nCodec ID                                 : XVID\nCodec ID/Hint                            : XviD\nDuration                                 : 1h 45mn\nBit rate                                 : 796 Kbps\nWidth                                    : 512 pixels\nHeight                                   : 384 pixels\nDisplay aspect ratio                     : 4:3\nFrame rate                               : 29.970 fps\nColor space                              : YUV\nChroma subsampling                       : 4:2:0\nBit depth                                : 8 bits\nScan type                                : Progressive\nCompression mode                         : Lossy\nBits/(Pixel*Frame)                       : 0.135\nStream size                              : 602 MiB (86%)\nWriting library                          : XviD 1.2.1 (UTC 2008-12-04)\n\nAudio\nID                                       : 1\nFormat                                   : MPEG Audio\nFormat version                           : Version 1\nFormat profile                           : Layer 3\nMode                                     : Joint stereo\nMode extension                           : MS Stereo\nCodec ID                                 : 55\nCodec ID/Hint                            : MP3\nDuration                                 : 1h 45mn\nBit rate mode                            : Variable\nBit rate                                 : 115 Kbps\nNominal bit rate                         : 128 Kbps\nChannel(s)                               : 2 channels\nSampling rate                            : 48.0 KHz\nCompression mode                         : Lossy\nStream size                              : 87.0 MiB (12%)\nAlignment                                : Aligned on interleaves\nInterleave, duration                     : 24 ms (0.72 video frame)\nInterleave, preload duration             : 523 ms\nWriting library                          : LAME3.98r\nEncoding settings                        : -m j -V 4 -q 2 -lowpass 17 --abr 128","torrent":{"xt":"urn:btih:19c971b3ba2002979d0466b6921c454be926c9ff","amp;dn":"DJ+Cinema+-+Masterpiece+Theater%28DVD%29%282009.avi%29-desspratt-","amp;tr":["udp%3A%2F%2Ftracker.openbittorrent.com%3A80","udp%3A%2F%2Fopen.demonii.com%3A1337","udp%3A%2F%2Ftracker.coppersurfer.tk%3A6969","udp%3A%2F%2Fexodus.desync.com%3A6969"],"infoHash":"19c971b3ba2002979d0466b6921c454be926c9ff","infoHashBuffer":{"type":"Buffer","data":[25,201,113,179,186,32,2,151,157,4,102,182,146,28,69,75,233,38,201,255]},"announce":[],"urlList":[]}}